<?xml version="1.0" standalone="no"?>
<!DOCTYPE svg PUBLIC "-//W3C//DTD SVG 20010904//EN"
 "http://www.w3.org/TR/2001/REC-SVG-20010904/DTD/svg10.dtd">
<svg version="1.0" xmlns="http://www.w3.org/2000/svg"
 width="16.000000pt" height="16.000000pt" viewBox="0 0 16.000000 16.000000"
 preserveAspectRatio="xMidYMid meet">
<metadata>
Created by potrace 1.11, written by Peter Selinger 2001-2013
</metadata>
<g transform="translate(0.000000,16.000000) scale(0.003125,-0.003125)"
fill="#000000" stroke="none">
<path d="M1063 4869 c-111 -21 -196 -97 -266 -240 -111 -228 -160 -496 -176
-974 l-9 -260 -34 -80 c-31 -76 -33 -86 -33 -205 0 -114 2 -130 26 -181 16
-33 41 -67 59 -80 58 -42 145 -190 164 -279 3 -14 23 -49 45 -78 22 -29 43
-62 46 -75 4 -12 31 -83 60 -157 67 -166 89 -288 82 -435 -6 -115 -25 -177
-69 -222 l-30 -31 12 -64 c8 -42 9 -75 3 -97 -9 -35 -18 -40 -85 -55 -20 -5
-30 -14 -34 -34 -4 -15 -16 -37 -27 -49 -13 -15 -22 -41 -25 -77 -4 -47 0 -62
22 -101 24 -40 26 -49 17 -83 -18 -63 -13 -94 28 -160 51 -84 67 -123 82 -210
9 -55 10 -86 2 -120 -6 -26 -23 -101 -38 -167 -15 -66 -33 -141 -41 -166 -12
-40 -12 -54 1 -95 8 -27 15 -59 15 -71 l0 -23 1470 0 c1321 0 1470 2 1470 15
0 9 -7 30 -16 46 -10 20 -13 41 -9 62 13 58 72 174 104 203 18 15 45 50 62 77
18 30 40 52 59 58 23 8 39 29 74 98 25 49 52 115 61 147 20 77 20 246 0 306
-15 42 -15 48 5 98 28 70 46 160 60 300 12 110 11 120 -14 238 -32 152 -32
171 0 291 32 116 43 138 104 212 62 74 75 112 61 181 -5 29 -13 99 -16 155 -6
93 -5 105 14 131 16 23 20 43 19 103 -1 65 3 84 34 154 40 92 59 155 83 275
10 47 26 119 37 160 10 42 22 129 25 197 15 311 -80 586 -231 666 -58 31 -184
30 -281 -2 -154 -51 -324 -159 -443 -279 -75 -77 -113 -131 -155 -220 -64
-137 -151 -263 -229 -331 -138 -119 -195 -131 -358 -73 -50 18 -127 35 -185
42 -134 16 -199 32 -265 65 -91 46 -188 112 -207 142 -10 15 -56 75 -102 132
-82 103 -128 186 -166 301 -32 97 -102 256 -145 330 -43 74 -114 165 -260 334
-162 189 -324 279 -457 255z"/>
<path d="M2543 4800 c-87 -20 -161 -93 -189 -186 -30 -101 -14 -160 101 -354
44 -74 94 -170 111 -212 l31 -77 27 67 c15 37 63 128 106 204 97 166 120 223
120 292 0 120 -75 229 -181 260 -57 17 -76 18 -126 6z m116 -206 c26 -34 27
-74 1 -106 -54 -70 -164 -14 -145 74 14 60 106 81 144 32z"/>
</g>
</svg>
