<?xml version="1.0" encoding="UTF-8" standalone="no"?>
<!-- Created with Inkscape (http://www.inkscape.org/) -->

<svg
   xmlns:dc="http://purl.org/dc/elements/1.1/"
   xmlns:cc="http://creativecommons.org/ns#"
   xmlns:rdf="http://www.w3.org/1999/02/22-rdf-syntax-ns#"
   xmlns:svg="http://www.w3.org/2000/svg"
   xmlns="http://www.w3.org/2000/svg"
   xmlns:sodipodi="http://sodipodi.sourceforge.net/DTD/sodipodi-0.dtd"
   xmlns:inkscape="http://www.inkscape.org/namespaces/inkscape"
   width="75.328331mm"
   height="94.503448mm"
   viewBox="0 0 266.91141 334.85474"
   id="svg3355"
   version="1.1"
   inkscape:version="0.91 r13725"
   sodipodi:docname="bouledogue4.svg">
  <defs
     id="defs3357" />
  <sodipodi:namedview
     id="base"
     pagecolor="#ffffff"
     bordercolor="#666666"
     borderopacity="1.0"
     inkscape:pageopacity="0.0"
     inkscape:pageshadow="2"
     inkscape:zoom="0.89417883"
     inkscape:cx="130.50295"
     inkscape:cy="173.60848"
     inkscape:document-units="px"
     inkscape:current-layer="layer1"
     showgrid="false"
     showguides="false"
     inkscape:window-width="1920"
     inkscape:window-height="1138"
     inkscape:window-x="-8"
     inkscape:window-y="-8"
     inkscape:window-maximized="1"
     fit-margin-top="0"
     fit-margin-left="0"
     fit-margin-right="0"
     fit-margin-bottom="0" />
  <metadata
     id="metadata3360">
    <rdf:RDF>
      <cc:Work
         rdf:about="">
        <dc:format>image/svg+xml</dc:format>
        <dc:type
           rdf:resource="http://purl.org/dc/dcmitype/StillImage" />
        <dc:title></dc:title>
      </cc:Work>
    </rdf:RDF>
  </metadata>
  <g
     inkscape:label="Calque 1"
     inkscape:groupmode="layer"
     id="layer1"
     transform="translate(-241.54429,-364.93483)">
    <path
       style="fill:#000000"
       d="m 424.62304,462.91001 c 1.97383,-2.74742 8.56072,-13.31225 9.29033,-15.38018 7.62212,-21.60338 43.65439,-43.07248 59.07831,-35.20061 12.7502,6.5073 19.34502,36.20271 13.04864,58.7559 -0.76104,2.72599 -1.94788,8.33134 -2.63741,12.45634 -0.68953,4.125 -2.74581,10.65 -4.56952,14.5 -2.7401,5.78459 -3.22067,7.78178 -2.76781,11.50256 0.45395,3.72974 0.1872,4.82909 -1.55415,6.40498 -1.15619,1.04634 -1.10216,3.63269 -1.10216,4.37245 0.0934,3.34318 1.43312,3.66024 1.07029,9.47001 0.0387,2.3375 0.42806,5.15 0.86535,6.25 1.02623,2.58151 -0.25948,5.92213 -4.00588,10.40838 -1.64963,1.97539 -3.45887,4.1621 -4.02053,4.85936 -0.56167,0.69725 -2.04452,5.19725 -3.29522,10 -2.44066,9.37226 -2.52624,7.68839 1.23174,24.23632 1.12565,4.95674 -1.40584,24.54188 -3.8482,29.77195 -1.99599,4.2742 -1.99599,4.27841 0.003,9.96534 0.35488,8.98508 2.70903,16.87714 -8.0238,33.26496 -2.68719,0.72359 -4.17268,1.99791 -5.88918,5.052 -1.26253,2.24638 -2.91358,4.3215 -3.66899,4.61138 -2.98617,1.1459 -8.73746,15.32026 -6.99671,17.24376 2.0229,2.23528 2.00947,5.49889 -0.0355,8.61985 -1.10066,1.67983 -1.40823,3.49688 -0.96734,5.71482 -66.96318,-0.15374 -178.38432,-0.0713 -195.2751,-0.0554 3.19224,-6.39492 3.49625,-10.72481 1.47515,-15.56195 -0.86966,-2.08141 -1.05389,-3.88933 -0.49762,-4.88335 0.48581,-0.86809 1.30191,-4.20389 1.81356,-7.41289 0.51164,-3.209 1.90465,-9.15882 3.09558,-13.22182 1.71047,-5.83546 1.93468,-7.89349 1.06736,-9.79705 -0.60388,-1.32538 -1.09796,-3.66884 -1.09796,-5.20769 0,-1.5757 -1.78405,-5.55818 -4.08409,-9.11679 -3.9687,-6.14035 -4.05056,-6.43861 -2.89751,-10.5569 1.0738,-3.83525 0.9797,-4.51784 -0.99012,-7.18216 -2.40057,-3.24695 -2.10227,-9.11591 0.57633,-11.33895 0.76746,-0.63694 1.39539,-1.9944 1.39539,-3.01657 0,-1.21472 0.95261,-2.06724 2.75,-2.46108 1.5125,-0.33142 3.24852,-0.75131 3.85781,-0.9331 1.72916,-0.51592 2.40199,-5.88308 1.25724,-10.02902 -0.95334,-3.45272 -0.8269,-3.93244 1.54637,-5.8668 6.14148,-5.00569 5.93198,-28.28044 -0.37685,-41.86672 -2.10442,-4.53194 -4.11617,-9.62189 -4.47056,-11.311 -0.35439,-1.68912 -1.97627,-4.52939 -3.60417,-6.31172 -1.62791,-1.78233 -2.95984,-4.12407 -2.95984,-5.20385 0,-4.25463 -6.89819,-15.82396 -10.96617,-18.39197 -6.69566,-4.22678 -8.02514,-23.35338 -2.25844,-32.49103 1.22439,-1.94011 1.61171,-6.1214 1.80632,-19.5 1.13239,-77.84588 27.7237,-104.7289 61.85182,-62.53032 2.00166,2.475 5.88486,7.2 8.62933,10.5 6.10684,7.34298 11.62881,18.0679 15.89331,30.86844 1.77027,5.31372 4.6839,11.79211 6.47475,14.39643 3.90025,5.67191 11.06908,12.78955 11.06908,14.31666 0,1.74274 7.21874,6.42472 17.85066,11.79834 13.00653,3.40608 14.56782,1.29764 27.07742,5.14115 7.85586,4.09559 11.60596,2.92372 14.04788,1.61685 5.05324,-1.65102 8.38083,-5.38117 14.73781,-11.26932 z"
       id="path3803"
       inkscape:connector-curvature="0"
       sodipodi:nodetypes="csssssssccsscsssccssssccssssssssssssssssssssssssssscccc" />
    <g
       id="g3337"
       transform="matrix(0.01408981,0,0,-0.01408981,361.80753,435.6378)"
       style="fill:#ffffff;stroke:none">
      <path
         style="fill:#ffffff"
         d="M 1300,5006 C 593.97325,4918.2665 42.65389,4265.1253 6.8971825,3566.1496 -28.723763,3180.6088 103.83739,2803.8433 299.625,2477.125 644.96813,1856.4642 1058.8011,1261.384 1251.1088,568.89908 1306.9761,383.67707 1346.3611,194.18542 1386,5 c 141.9815,-14.1149789 303.4897,-23.911479 272.011,180.15173 137.9604,743.20351 519.2031,1406.22737 909.2761,2042.61587 214.352,387.0771 455.3942,795.1292 431.7109,1254.4166 -6.9605,688.8428 -503.2626,1371.0801 -1196.4284,1499.8752 C 1637.9619,5017.1232 1467.1354,5029.4222 1300,5006 Z m 370,-290 C 2287.4937,4636.4426 2735.5156,4023.2602 2709.9661,3416.6368 2701.4042,2978.7577 2444.0104,2603.4154 2236.2737,2235.405 1952.0945,1774.7591 1692.6021,1296.1689 1512.5,784.375 1420.6117,884.18024 1352.598,1206.8617 1244.9785,1382.4653 977.41412,1951.9979 585.52529,2457.1226 351.52197,3042.6387 167.72471,3603.82 401.04592,4279.1879 920.38376,4575.0176 1144.2451,4707.1724 1413.5638,4755.4407 1670,4716 Z"
         id="path3339"
         inkscape:connector-curvature="0" />
      <path
         id="path3341"
         d="m 1379,3846 c -106,-41 -194,-117 -237,-207 -95,-196 -11,-434 188,-532 60,-30 72,-32 170,-32 98,0 110,2 170,32 198,98 283,335 189,531 -35,72 -119,155 -192,188 -52,24 -77,29 -157,31 -61,2 -108,-2 -131,-11 z"
         inkscape:connector-curvature="0"
         style="fill:#ffffff" />
    </g>
    <path
       style="fill:#000000"
       d="m 382.06225,422.46536 c -3.59313,-10.19383 -10.35171,-18.81697 -14.78603,-28.60315 -1.55441,-3.71665 -1.54719,-7.97133 -0.63101,-11.84493 1.93542,-7.29564 8.95175,-13.3454 16.706,-12.87227 6.60072,0.0221 12.63484,4.55555 15.05463,10.60099 2.167,4.98067 1.99025,10.86947 -0.50388,15.70075 -4.09329,8.71138 -9.9799,16.50146 -13.43902,25.52782 -0.67306,1.0678 -1.40076,5.51402 -2.06937,2.38404 l -0.16074,-0.43113 -0.1709,-0.46212 3.2e-4,0 z m 3.0952,-30.4861 c 3.44553,-1.36331 4.64636,-6.49184 1.80575,-9.02134 -1.51347,-1.85532 -4.22615,-2.03028 -6.33954,-1.30227 -2.36976,1.14676 -3.75903,3.83775 -3.17077,6.42352 0.67072,2.50947 3.19165,4.67612 5.89321,4.25553 0.61917,-0.002 1.25378,-0.0588 1.81135,-0.35544 z"
       id="path3356"
       inkscape:connector-curvature="0" />
  </g>
</svg>
